<?xml version="1.0" encoding="UTF-8"?>
<svg id="Capa_1" xmlns="http://www.w3.org/2000/svg" width="400" height="100" version="1.1" viewBox="0 0 400 100">
  <!-- Generator: Adobe Illustrator 30.2.1, SVG Export Plug-In . SVG Version: 2.1.1 Build 1)  -->
  <defs>
    <style>
      .st0 {
        fill: #fff;
      }
    </style>
  </defs>
  <g>
    <path class="st0" d="M315.42,75.17l.31-.13c.12.33.37.51.69.51s.55-.23.55-.53-.15-.48-.64-.7c-.49-.22-.76-.41-.76-.84s.35-.76.82-.76c.39,0,.66.2.82.5l-.28.16c-.14-.23-.29-.35-.54-.35-.28,0-.48.19-.48.44s.17.37.64.58c.55.25.76.5.76.96,0,.51-.39.84-.89.84s-.86-.29-1-.7Z"/>
    <path class="st0" d="M317.85,74.29c0-.87.72-1.56,1.58-1.56s1.56.69,1.56,1.58-.72,1.57-1.58,1.57-1.56-.68-1.56-1.58ZM320.65,74.3c0-.72-.56-1.26-1.24-1.26s-1.23.55-1.23,1.25.59,1.26,1.23,1.26c.68,0,1.25-.54,1.25-1.25Z"/>
    <path class="st0" d="M321.51,74.31c0-.88.69-1.58,1.58-1.58.32,0,.62.1.86.26v.39c-.25-.21-.55-.34-.88-.34-.69,0-1.23.55-1.23,1.26s.54,1.25,1.23,1.25c.35,0,.59-.1.87-.35v.4c-.25.16-.54.26-.88.26-.88,0-1.56-.69-1.56-1.56Z"/>
    <path class="st0" d="M324.64,75.81v-3.03h.33v3.03h-.33Z"/>
    <path class="st0" d="M325.84,75.81v-3.03h1.58v.31h-1.25v.9h1.21v.31h-1.21v1.19h1.25v.31h-1.58Z"/>
    <path class="st0" d="M328.24,75.81v-3.03h.53c1.05,0,1.72.55,1.72,1.51s-.69,1.52-1.75,1.52h-.49ZM328.57,75.5h.18c.86,0,1.4-.43,1.4-1.21s-.49-1.2-1.37-1.2h-.21v2.4Z"/>
    <path class="st0" d="M333.1,75.81l-.36-.86h-1.35l-.37.86h-.36l1.42-3.19h0l1.38,3.19h-.37ZM331.52,74.64h1.09l-.27-.64c-.09-.21-.18-.43-.27-.65-.09.22-.19.44-.29.65l-.27.63Z"/>
    <path class="st0" d="M333.9,75.81v-3.03h.53c1.05,0,1.72.55,1.72,1.51s-.69,1.52-1.75,1.52h-.49ZM334.24,75.5h.18c.86,0,1.4-.43,1.4-1.21s-.49-1.2-1.37-1.2h-.21v2.4Z"/>
    <path class="st0" d="M339.91,75.81l-.36-.86h-1.35l-.37.86h-.36l1.42-3.19h0l1.38,3.19h-.37ZM338.34,74.64h1.09l-.27-.64c-.09-.21-.18-.43-.27-.65-.09.22-.19.44-.29.65l-.27.63Z"/>
    <path class="st0" d="M342.94,72.78h.33v3.18h-.01l-2.22-2.52v2.38h-.33v-3.19h.02l2.21,2.52v-2.36Z"/>
    <path class="st0" d="M343.97,74.29c0-.87.72-1.56,1.58-1.56s1.56.69,1.56,1.58-.72,1.57-1.58,1.57-1.56-.68-1.56-1.58ZM346.78,74.3c0-.72-.56-1.26-1.24-1.26s-1.23.55-1.23,1.25.59,1.26,1.23,1.26c.68,0,1.25-.54,1.25-1.25ZM345.33,72.55l-.16-.12.58-.61.29.19-.71.55Z"/>
    <path class="st0" d="M350.04,72.78h.33v3.18h-.01l-2.22-2.52v2.38h-.33v-3.19h.02l2.21,2.52v-2.36Z"/>
    <path class="st0" d="M351.24,75.81v-3.03h.33v3.03h-.33Z"/>
    <path class="st0" d="M353.89,75.93l-.92-2.3-.39,2.18h-.35l.62-3.22h0l1.04,2.57,1.07-2.57h.01l.57,3.22h-.34l-.37-2.18-.94,2.3h-.01Z"/>
    <path class="st0" d="M358.21,75.81l-.36-.86h-1.35l-.37.86h-.36l1.42-3.19h0l1.38,3.19h-.37ZM356.64,74.64h1.09l-.27-.64c-.09-.21-.18-.43-.27-.65-.09.22-.19.44-.29.65l-.27.63Z"/>
    <path class="st0" d="M361.52,75.93l-.92-2.3-.39,2.18h-.35l.62-3.22h0l1.04,2.57,1.07-2.57h.01l.57,3.22h-.34l-.37-2.18-.94,2.3h-.01Z"/>
    <path class="st0" d="M363.77,74.74v-1.96h.33v1.93c0,.57.29.84.74.84s.74-.27.74-.86v-1.91h.33v1.96c0,.71-.45,1.13-1.07,1.13s-1.07-.43-1.07-1.13Z"/>
    <path class="st0" d="M368.97,72.78h.33v3.18h-.01l-2.22-2.52v2.38h-.33v-3.19h.02l2.21,2.52v-2.36Z"/>
    <path class="st0" d="M370.17,75.81v-3.03h.33v3.03h-.33Z"/>
    <path class="st0" d="M371.21,74.31c0-.88.69-1.58,1.58-1.58.32,0,.62.1.86.26v.39c-.25-.21-.55-.34-.88-.34-.69,0-1.23.55-1.23,1.26s.54,1.25,1.23,1.25c.35,0,.59-.1.87-.35v.4c-.25.16-.54.26-.88.26-.88,0-1.56-.69-1.56-1.56Z"/>
    <path class="st0" d="M374.34,75.81v-3.03h.33v3.03h-.33Z"/>
    <path class="st0" d="M375.54,75.81v-3.03h.46c.68,0,1.12.24,1.12.86,0,.55-.4.87-1,.87h-.25v1.29h-.33ZM375.88,74.21h.22c.45,0,.71-.2.71-.57s-.27-.55-.73-.55h-.19v1.12Z"/>
    <path class="st0" d="M379.51,75.81l-.36-.86h-1.35l-.37.86h-.36l1.42-3.19h0l1.38,3.19h-.37ZM377.94,74.64h1.09l-.27-.64c-.09-.21-.18-.43-.27-.65-.09.22-.19.44-.29.65l-.27.63Z"/>
    <path class="st0" d="M380.32,75.81v-3.03h.33v2.72h.94v.31h-1.28Z"/>
    <path class="st0" d="M306.75,64.69c0-.9.71-1.63,1.63-1.63.33,0,.63.1.88.27v.41c-.25-.22-.57-.35-.91-.35-.71,0-1.26.57-1.26,1.3s.55,1.29,1.27,1.29c.36,0,.61-.11.9-.36v.41c-.26.17-.56.27-.91.27-.9,0-1.6-.71-1.6-1.61Z"/>
    <path class="st0" d="M310.32,66.24v-2.8h-.76v-.32h1.85v.32h-.75v2.8h-.34Z"/>
    <path class="st0" d="M311.86,65.13v-2.02h.34v1.98c0,.59.3.87.76.87s.76-.28.76-.88v-1.97h.34v2.02c0,.73-.46,1.16-1.11,1.16s-1.1-.44-1.1-1.16Z"/>
    <path class="st0" d="M316.96,66.24l-.37-.88h-1.4l-.38.88h-.37l1.46-3.29h0l1.42,3.29h-.38ZM315.34,65.04h1.12l-.27-.65c-.1-.22-.19-.44-.27-.67-.1.22-.19.45-.29.67l-.28.65Z"/>
    <path class="st0" d="M317.52,64.69c0-.9.71-1.63,1.63-1.63.33,0,.63.1.88.27v.41c-.25-.22-.57-.35-.91-.35-.71,0-1.26.57-1.26,1.3s.55,1.29,1.27,1.29c.36,0,.61-.11.9-.36v.41c-.26.17-.56.27-.91.27-.9,0-1.6-.71-1.6-1.61Z"/>
    <path class="st0" d="M320.74,66.24v-3.12h.34v3.12h-.34Z"/>
    <path class="st0" d="M321.81,64.67c0-.89.74-1.61,1.62-1.61s1.61.71,1.61,1.62-.75,1.62-1.63,1.62-1.6-.7-1.6-1.63ZM324.7,64.68c0-.74-.58-1.3-1.28-1.3s-1.27.56-1.27,1.29.6,1.3,1.26,1.3c.7,0,1.28-.56,1.28-1.29Z"/>
    <path class="st0" d="M328.05,63.12h.34v3.27h-.01l-2.28-2.6v2.45h-.34v-3.29h.02l2.28,2.6v-2.43Z"/>
    <path class="st0" d="M329.29,66.24v-3.12h1.63v.32h-1.28v.93h1.24v.32h-1.24v1.22h1.28v.32h-1.63Z"/>
    <path class="st0" d="M331.55,65.58l.32-.13c.13.34.38.53.71.53s.57-.24.57-.55-.15-.5-.65-.72c-.51-.23-.78-.43-.78-.86s.36-.78.84-.78c.4,0,.68.2.84.52l-.29.17c-.14-.24-.3-.36-.56-.36-.29,0-.5.2-.5.46s.17.38.65.6c.57.26.79.51.79.99,0,.52-.4.87-.92.87s-.88-.3-1.03-.72Z"/>
    <path class="st0" d="M348.73,66.19h-.42l-.93-1.34h-.13v1.34h-.34v-3.12h.46c.68,0,1.14.28,1.14.87,0,.45-.28.76-.75.88l.99,1.37ZM347.24,63.39v1.16h.16c.46,0,.76-.2.76-.6,0-.37-.28-.56-.75-.56h-.17Z"/>
    <path class="st0" d="M349.38,66.19v-3.12h.51c.68,0,1.05.29,1.05.81,0,.31-.19.56-.43.67h0c.44.09.7.37.7.77,0,.57-.42.88-1.11.88h-.72ZM349.72,64.45h.24c.42,0,.63-.24.63-.56s-.21-.51-.64-.51h-.23v1.07ZM349.72,65.86h.4c.51,0,.73-.24.73-.57s-.21-.55-.79-.55h-.34v1.12Z"/>
    <path class="st0" d="M354.04,66.19l-.37-.88h-1.4l-.38.88h-.37l1.46-3.29h0l1.42,3.29h-.38ZM352.42,64.98h1.12l-.27-.65c-.1-.22-.19-.44-.27-.67-.1.22-.19.45-.29.67l-.28.65Z"/>
    <path class="st0" d="M357.25,63.06h.34v3.27h-.01l-2.28-2.6v2.45h-.34v-3.29h.02l2.28,2.6v-2.43Z"/>
    <path class="st0" d="M360.64,66.19l-.37-.88h-1.4l-.38.88h-.37l1.46-3.29h0l1.42,3.29h-.38ZM359.01,64.98h1.12l-.27-.65c-.1-.22-.19-.44-.27-.67-.1.22-.19.45-.29.67l-.28.65Z"/>
    <path class="st0" d="M361.34,65.52l.32-.13c.13.34.38.53.71.53s.57-.24.57-.55-.15-.5-.65-.72c-.51-.23-.78-.43-.78-.86s.36-.78.84-.78c.4,0,.68.2.84.52l-.29.17c-.14-.24-.3-.36-.56-.36-.29,0-.5.2-.5.46s.17.38.65.6c.57.26.79.51.79.99,0,.52-.4.87-.92.87s-.88-.3-1.03-.72Z"/>
    <path class="st0" d="M366.79,66.19v-3.12h.54c1.08,0,1.77.56,1.77,1.56s-.71,1.57-1.81,1.57h-.51ZM367.13,65.86h.19c.88,0,1.44-.44,1.44-1.24s-.5-1.23-1.41-1.23h-.22v2.48Z"/>
    <path class="st0" d="M369.9,66.19v-3.12h1.63v.32h-1.28v.93h1.24v.32h-1.24v1.22h1.28v.32h-1.63Z"/>
    <path class="st0" d="M384.61,66.19l-.37-.88h-1.4l-.38.88h-.37l1.46-3.29h0l1.42,3.29h-.38ZM382.98,64.98h1.12l-.27-.65c-.1-.22-.19-.44-.27-.67-.1.22-.19.45-.29.67l-.28.65Z"/>
    <path class="st0" d="M385.43,66.19v-3.12h.34v2.8h.97v.32h-1.32Z"/>
    <path class="st0" d="M387.27,66.19v-3.12h1.63v.32h-1.28v.93h1.24v.32h-1.24v1.22h1.28v.32h-1.63ZM388.36,62.83l-.72-.57.29-.19.61.63-.18.13Z"/>
    <path class="st0" d="M392.03,63.06h.34v3.27h-.01l-2.28-2.6v2.45h-.34v-3.29h.02l2.28,2.6v-2.43Z"/>
    <path class="st0" d="M393.09,64.63c0-.9.71-1.63,1.63-1.63.33,0,.63.1.88.27v.41c-.25-.22-.57-.35-.91-.35-.71,0-1.26.57-1.26,1.3s.55,1.29,1.27,1.29c.36,0,.61-.11.9-.36v.41c-.26.17-.56.27-.91.27-.9,0-1.6-.71-1.6-1.61Z"/>
    <path class="st0" d="M396.31,66.19v-3.12h.34v3.12h-.34Z"/>
    <path class="st0" d="M399.62,66.19l-.37-.88h-1.4l-.38.88h-.37l1.46-3.29h0l1.42,3.29h-.38ZM398,64.98h1.12l-.27-.65c-.1-.22-.19-.44-.27-.67-.1.22-.19.45-.29.67l-.28.65Z"/>
    <g>
      <polygon class="st0" points="378.17 61.69 379.9 64.76 382.1 60.29 373.49 60.29 377.79 69.05 379.56 65.45 377.57 61.69 378.17 61.69"/>
      <polygon class="st0" points="382.46 61.69 380.38 65.61 379.9 64.76 379.56 65.45 380.37 66.98 380.38 66.98 383.07 61.69 382.46 61.69"/>
    </g>
    <polygon class="st0" points="359.89 34.84 359.89 56.35 337.29 56.35 337.29 34.84 348.48 45.88 359.89 34.84"/>
    <path class="st0" d="M372.68,42.07c6.17,2.13,7.21,10.22,1.44,13.61-4.9,2.87-11.77.34-12.61-5.46l3.86-3.2c-4.36-2.58-4.52-8.66-.11-11.32,3.89-2.35,9.23-.86,10.9,3.45l-3.48,2.93Z"/>
    <polygon class="st0" points="399.52 56.35 377.34 56.35 388.22 33.93 399.52 56.35"/>
    <path class="st0" d="M335.71,35.5l-.08,13.75c-1.22,10.25-16.82,10.01-17.79-.25v-13.5h17.87Z"/>
    <polygon class="st0" points="319.68 56.35 297.5 56.35 308.38 33.93 319.68 56.35"/>
    <g>
      <path class="st0" d="M341.58,64.96v-3.4h.64v3.35c0,.99.56,1.47,1.41,1.47.03,0,.06,0,.09,0,.15-.39.24-.82.24-1.26v-4.81h-6.95v4.81c0,1.92,1.56,3.48,3.48,3.48,1.25,0,2.35-.67,2.96-1.66-1.09-.07-1.86-.8-1.86-1.96Z"/>
      <path class="st0" d="M345.04,61.55v3.33c0,.98-.53,1.45-1.33,1.48-.08.19-.17.38-.27.55.06,0,.12,0,.19,0,1.2,0,2.05-.73,2.05-1.96v-3.4h-.64Z"/>
    </g>
    <g>
      <polygon class="st0" points="301.68 66.98 301.06 66.98 303.03 63.12 301.32 59.65 297.02 68.4 305.63 68.4 303.36 63.8 301.68 66.98"/>
      <polygon class="st0" points="303.77 61.69 303.75 61.69 303.03 63.12 303.36 63.8 303.75 63.06 305.96 66.98 306.56 66.98 303.77 61.69"/>
    </g>
  </g>
  <g>
    <g>
      <path class="st0" d="M64.88,47.37c-.07-.54-.1-1.08-.21-1.62-.12-.62-.29-1.23-.27-1.87,0-.08.03-.19-.08-.22-.12-.03-.16.08-.19.17-.28.64-.7,1.19-1.22,1.66-.16.15-.32.31-.45.49-.17.22-.29.25-.48.05-.38-.38-.73-.78-.99-1.27-.25-.49-.34-1.02-.54-1.52-.04-.09-.04-.2-.16-.21-.11,0-.14.09-.18.16-.55.83-1.02,1.7-1.26,2.68-.11.44-.18.46-.52.17-.04-.03-.08-.07-.12-.09-.62-.32-1.09-.79-1.37-1.43-.03-.07-.06-.15-.15-.15-.1,0-.13.08-.16.15-.03.06-.06.12-.08.19-.27.76-.31,1.53-.21,2.33.18,1.4.79,2.61,1.74,3.64.6.64,1.25,1.23,1.88,1.83.17.17.27.35.25.59-.05.56-.06,1.13-.06,1.69,0,.16-.04.32-.23.39-.1.03-.11.14-.14.23-.28.97-1,1.66-1.59,2.43-.09.11-.17.13-.27,0-.14-.17-.29-.33-.42-.51-.33-.45-.52-.96-.74-1.46-.04-.08-.03-.21-.16-.2-.12,0-.13.14-.14.22-.05.23-.14.45-.26.64-.53.82-.7,1.74-.78,2.67-.09,1.09.2,2.12.62,3.11.26.62.26.64-.42.64-.94,0-1.87,0-2.81,0-.37,0-.39-.02-.39-.4,0-5.15,0-10.3,0-15.45,0-.3.03-.6.11-.88.19-.65.52-1.06,1.01-1.46.11-.09.2-.18.14-.29-.03-.05-.17-.06-.26-.06-2.47,0-4.97,0-7.45,0-.19,0-.25.14-.15.28.03.05.08.09.12.13.71.67,1.02,1.51,1.03,2.46.02,1.58,0,3.71,0,5.31l-13.18-13.18c.13,0,.27,0,.31-.02.62-.1,1.24-.21,1.86-.33,1.3-.25,2.57-.62,3.82-1.06,1.06-.38,2.07-.85,3.01-1.48.29-.2.53-.44.66-.78.55-1.48,1.32-2.85,2.02-4.26.62-1.24,1.27-2.46,1.92-3.69.11-.2.05-.34-.13-.45-.31-.17-.64-.3-1-.3-.85,0-1.61.26-2.22.89-.11.12-.21.17-.4.15-.72-.1-1.14.2-1.31.91-.03.12-.04.24-.06.35-.05.33-.05.69-.49.78-.39.07-.77.14-1.17.12-.26-.02-.52-.18-.59-.38-.11-.29.08-.42.28-.56.03-.02.05-.05.08-.07.55-.35.68-1.13.13-1.68-.16-.16-.22-.33-.22-.55,0-.53-.29-.94-.77-1.08-.57-.18-1.06-.02-1.36.46-.16.26-.35.47-.6.65-.32.22-.49.54-.5.96,0,.29.09.53.21.78.2.42.1.7-.29.78-.84.17-1.64.02-2.34-.48-.27-.19-.47-.59-.31-.85.15-.22.28-.45.41-.68.27-.47.32-.98.31-1.5-.01-.58-.29-1.04-.62-1.49-.11-.15-.28-.26-.31-.46-.08-.58-.29-1.1-.63-1.58-.09-.13-.09-.23-.03-.38.39-.83,1.08-1.3,1.92-1.53.89-.25,1.79-.19,2.69,0,.22.05.42.05.63-.02.15-.05.29-.11.44-.15.69-.18,1.38-.29,2.09-.38.78-.1,1.52-.04,2.27.16.69.19,1.36.44,2.02.73.12.05.23.07.35.05.22-.03.44-.08.65-.12.45-.08.89-.2,1.35-.11.84.16,1.61.51,2.36.9.55.29,1.1.58,1.66.87.07.04.16.11.23.01.05-.07.04-.16-.02-.24-.03-.04-.05-.09-.08-.13-.48-.79-1.14-1.42-1.82-2.04-.9-.82-1.86-1.55-2.89-2.2-1.52-.95-3.08-1.81-4.8-2.35-.45-.14-.93-.24-1.29-.59-.1-.1-.22-.04-.29.09-.06.11-.05.23-.04.35,0,.18-.06.31-.24.39-.27.11-.54.22-.81.32-.8.3-1.6.59-2.44.74-.57.1-1.13.27-1.72.22-.38-.03-.77-.05-1.09-.3-.32-.26-.35-.61-.03-.84.46-.34.65-.77.54-1.33-.08-.4-.33-.7-.63-.94-.37-.29-.66-.62-.86-1.04-.04-.08-.09-.17-.19-.15-.11.02-.14.13-.15.21-.06.4-.13.81-.16,1.22-.05.59-.1.65-.69.65-.54,0-.56-.03-.62-.59-.05-.45-.14-.89-.2-1.34-.01-.08-.04-.15-.13-.17-.08-.01-.13.03-.16.1-.03.05-.08.1-.09.15-.12.45-.45.72-.8.99-.78.6-.9,1.75.01,2.27.19.1.22.25.16.43-.08.25-.23.44-.48.53-.34.13-.69.15-1.05.16-.66.02-1.28-.18-1.91-.32-.84-.19-1.65-.5-2.45-.82-.4-.16-.65-.34-.66-.8,0-.25-.2-.33-.36-.16-.27.28-.61.36-.95.46-1.5.45-2.91,1.11-4.24,1.92-.84.51-1.69,1-2.45,1.63-.46.38-.92.76-1.37,1.16-.68.6-1.28,1.26-1.75,2.03-.05.09-.12.19-.04.28.08.09.17.01.26-.02.39-.15.75-.38,1.11-.57.61-.32,1.23-.64,1.87-.9.47-.19.96-.33,1.47-.31.47.02.94.14,1.41.25.19.04.35.03.52-.05.62-.27,1.24-.53,1.9-.69.46-.11.93-.26,1.41-.23.36.02.72.04,1.07.07.79.08,1.55.23,2.29.5.22.08.45.11.68.06.51-.11,1.02-.15,1.54-.15.72,0,1.39.15,2.01.51.49.28.82.68,1.06,1.18.07.15.03.28-.07.4-.29.35-.45.78-.53,1.21-.07.36-.24.64-.46.92-.33.42-.53.91-.54,1.46-.02.74.27,1.36.66,1.96.12.19.16.38.05.58-.09.18-.22.35-.4.46-.71.45-1.48.48-2.27.35-.24-.04-.37-.31-.29-.54.04-.13.1-.25.16-.38.23-.5.15-1.13-.28-1.48-.32-.25-.57-.56-.8-.88-.31-.42-.75-.43-1.2-.34-.5.1-.75.44-.82.92-.04.29-.08.55-.31.81-.36.4-.36.82-.1,1.25.11.18.28.32.46.45.15.11.29.24.25.45-.04.21-.19.33-.4.39-.35.1-.69.02-1.04,0-.16,0-.32-.06-.47-.12-.19-.08-.27-.22-.31-.41-.03-.15-.04-.3-.06-.46-.11-.82-.65-1.28-1.37-1.13-.16.03-.26,0-.36-.12-.23-.25-.5-.46-.82-.61-.72-.33-1.45-.46-2.2-.13-.46.2-.53.31-.26.71.06.09.09.2.14.3.61,1.17,1.22,2.33,1.83,3.51.31.59.59,1.19.9,1.78.36.68.68,1.38.94,2.1.09.24.21.46.41.64.75.66,1.64,1.08,2.55,1.44,1.31.53,2.66.96,4.06,1.24.72.14,1.43.31,2.16.42.08.01.35.03.57.05l-13.18,13.18c0-1.78-.01-4.02,0-5.71,0-.68.21-1.28.77-1.71.17-.13.32-.28.47-.44.05-.05.13-.12.08-.23-.04-.09-.12-.08-.2-.08-.08,0-.15,0-.23,0h-6.94c-.13,0-.26,0-.39,0-.25,0-.33.13-.19.34.09.14.23.25.35.38.53.56.81,1.24.81,1.99.02,5.91.01,11.82.01,17.74,0,.13-.04.24-.1.36-.17.37-.45.66-.73.95-.05.05-.11.1-.08.18.03.07.1.08.18.08.09,0,.17,0,.26,0,3.07,0,6.14-.02,9.22.01.56,0,.9-.17,1.18-.64.26-.44.72-1.06,1.07-1.5l8.89,8.89,14.46-14.46c0,1.66,0,3.91,0,5.54,0,.28-.07.54-.19.79-.25.53-.4.73-.82,1.08-.19.11-.06.28.04.28,3.06,0,6.11,0,9.17,0,.09,0,.21-.04.25.06.04.09-.08.14-.13.2-.33.41-.75.75-1.11,1.14-.48.54-.97,1.05-1.52,1.53-.12.11-.23.15-.29-.07-.06-.2-.18-.24-.37-.12-.6.38-1.26.63-1.92.91-.22.1-.29.02-.26-.18.05-.45.05-.91.05-1.36,0-.4-.09-.78-.23-1.15-.1-.28-.21-.3-.42-.09-.2.2-.37.42-.58.61-.35.32-.73.62-1.08.94-.44.4-.85.83-1.25,1.28-.55.62-.95,1.34-1.3,2.08-.36.76-.52,1.58-.52,2.41,0,.48-.23.71-.61.9-1.06.54-2.16.98-3.31,1.29-.61.17-1.22.32-1.84.42-.07.01-.16.04-.21-.05-.05-.07.02-.13.06-.18.33-.37.55-.82.78-1.26.16-.29.23-.61.21-.94-.03-.74-.3-1.4-.74-1.99-.18-.23-.43-.39-.74-.3-1.21.35-2.29.95-3.21,1.8-.82.75-1.44,1.67-1.93,2.67-.11.22-.23.38-.51.3-.15-.04-.23-.13-.29-.26-.37-.8-.85-1.55-1.43-2.21-.99-1.12-2.21-1.89-3.64-2.35-.32-.1-.68,0-.86.28-.19.28-.37.57-.5.89-.37.9-.29,1.75.26,2.55.18.26.29.56.55.77.05.04.09.11.04.18-.04.06-.1.02-.16.01-.36-.08-.72-.15-1.08-.23-1.47-.32-2.86-.86-4.2-1.54-.19-.1-.4-.19-.46-.42-.11-.37-.23-.74-.25-1.12-.03-.51-.13-1.02-.3-1.5-.5-1.46-1.48-2.59-2.59-3.61-.52-.48-1.09-.91-1.55-1.45-.31-.36-.41-.34-.58.1-.03.07-.05.14-.06.22-.18.74-.21,1.49-.06,2.23.03.16-.02.26-.2.17-.65-.32-1.35-.52-1.95-.94-.26-.19-.32-.16-.42.16-.04.15-.09.19-.22.07-.35-.34-.72-.66-1.05-1.01-.27-.28-.52-.59-.81-.86-.67-.64-1.29-1.32-1.88-2.04-.27-.33-.56-.65-.8-1-.12-.18-.13-.32.01-.48.15-.17.3-.33.43-.51.98-1.4,1.46-2.95,1.26-4.66-.07-.61-.18-1.21-.45-1.78-.19-.4-.44-.77-.57-1.2-.03-.09-.02-.23-.15-.23-.13,0-.12.15-.15.24-.28.71-.58,1.4-1.13,1.96-.11.11-.17.11-.26,0-.15-.19-.29-.38-.45-.56-.5-.58-.94-1.19-1.16-1.94-.01-.05-.04-.12-.07-.13-.35-.11-.28-.41-.28-.66-.02-.48.01-.96-.05-1.43-.02-.17-.01-.35.12-.48.69-.68,1.4-1.36,2.08-2.06.66-.68,1.07-1.52,1.39-2.4.26-.75.32-1.53.27-2.32-.03-.45-.12-.9-.32-1.31-.04-.08-.07-.19-.19-.18-.1,0-.12.11-.16.19-.2.41-.43.8-.81,1.07-.2.14-.42.27-.62.41-.42.3-.43.31-.56-.2-.24-.94-.7-1.78-1.21-2.59-.06-.1-.11-.24-.26-.21-.13.02-.12.17-.16.27,0,.01,0,.03-.01.05-.22.84-.5,1.65-1.1,2.31-.15.16-.28.34-.47.46-.1.07-.17.06-.24-.02-.3-.35-.63-.67-.95-1-.38-.39-.65-.85-.88-1.34-.04-.07-.07-.18-.18-.15-.1.03-.1.13-.09.22.05.38-.02.75-.09,1.11-.17.84-.34,1.68-.37,2.53-.05,1.09.09,2.15.67,3.11.4.65.86,1.26,1.55,1.64.48.27.61.77.81,1.22-.03,1.22.05,2.43.2,3.63.01.11.13.29,0,.35-.13.05-.25-.11-.36-.2-.18-.17-.35-.36-.54-.52-.17-.15-.29-.1-.33.11-.22,1.07-.34,2.14-.22,3.23.12,1.1.63,2,1.35,2.81.67.75,1.51,1.22,2.43,1.57.13.05.26.09.35.2.53.67,1.08,1.32,1.61,1.99.67.85,1.42,1.64,2.12,2.46.27.31.57.59.84.9.47.53.98,1.03,1.5,1.51.24.22.51.41.59.78.19.86.69,1.53,1.34,2.11.08.07.24.1.19.24-.04.12-.18.11-.28.14-.45.1-.87.25-1.26.49-.39.23-.81.4-1.14.72-.19.19-.18.22.06.3.4.13.81.22,1.19.39.89.4,1.77.84,2.72,1.11.74.21,1.48.29,2.25.14.75-.15,1.46-.41,2.17-.68.11-.04.21-.1.32-.04.45.24.95.39,1.42.58.72.28,1.43.6,2.17.83.89.29,1.8.54,2.72.71.7.13,1.39.27,2.09.35.3.03.61-.03.89.1.33.16.68.27,1.04.38.21.07.19.14.06.27-.53.53-1.17.9-1.83,1.21-1.12.52-2.31.78-3.52.93-.85.11-1.68.3-2.53.36-.06,0-.12.03-.13.1-.02.06.04.09.08.12.19.16.43.2.65.29.77.31,1.57.5,2.4.61.07,0,.17-.02.21.07.03.07-.06.12-.09.17-.44.66-.93,1.29-1.23,2.04-.12.32-.25.64-.24.99,0,.23.12.29.31.18.27-.15.53-.32.79-.47.83-.5,1.6-1.07,2.37-1.66.69-.54,1.39-1.08,2.05-1.67.43-.38.86-.75,1.26-1.16.37-.37.78-.68,1.17-1.04.1-.09.15-.08.25,0,.6.5,1.16,1.04,1.73,1.57.52.48,1.06.94,1.61,1.39.52.42,1.08.81,1.61,1.23.61.5,1.25.95,1.92,1.36.3.18.6.37.9.55.08.05.18.09.26.01.07-.06.08-.15.07-.24-.08-.57-.28-1.09-.57-1.58-.28-.49-.59-.96-.93-1.41-.1-.13-.11-.22.11-.24.39-.02.78-.11,1.16-.21.62-.16,1.24-.34,1.81-.63.06-.03.17-.07.15-.15-.02-.09-.12-.11-.21-.12-.37-.05-.74-.09-1.11-.15-1-.17-2.01-.29-3-.52-1.28-.3-2.44-.82-3.47-1.63-.12-.1-.31-.19-.29-.37.02-.18.24-.17.38-.2.34-.1.64-.3.99-.34.52-.06,1.06-.08,1.58-.17,1.36-.25,2.71-.52,4.02-1,1.17-.43,2.34-.84,3.49-1.34.1-.05.19-.05.29,0,.45.18.9.37,1.37.49.68.18,1.34.37,2.06.29.84-.1,1.63-.34,2.41-.67.8-.33,1.56-.77,2.42-.98.12-.03.3-.02.32-.17.02-.14-.14-.24-.24-.31-.72-.43-1.44-.89-2.28-1.07-.08-.02-.2-.02-.23-.13-.03-.12.07-.19.15-.25.72-.57,1.15-1.32,1.4-2.19.05-.16.1-.3.23-.42.24-.2.48-.41.71-.62.38-.37.74-.74,1.09-1.13.54-.61,1.1-1.19,1.65-1.8.94-1.03,1.8-2.12,2.67-3.21.3-.38.67-.62,1.11-.78.22-.08.44-.17.65-.3.67-.39,1.25-.89,1.71-1.52.42-.57.75-1.18.9-1.88.16-.74.14-1.49.08-2.24-.04-.49-.08-.99-.24-1.46-.07-.22-.14-.24-.32-.09-.19.17-.38.35-.57.52-.09.08-.2.21-.29.16-.12-.06-.06-.23-.04-.35.1-.68.15-1.37.19-2.06.02-.48,0-.96,0-1.44,0-.14,0-.29.09-.39.14-.19.23-.4.33-.6.05-.1.11-.2.21-.25.55-.25.95-.66,1.31-1.13.4-.52.76-1.08.89-1.74.13-.68.25-1.35.17-2.06ZM45.93,20.03c.15-.45.53-.56.95-.6.64-.06,1.2.15,1.78.38.72.28,1.31.76,1.88,1.27.14.12.24.28.37.42-.53-.19-.99-.5-1.5-.69-.67-.24-1.34-.53-2.07-.53-.35,0-.69.09-1.03.17-.15.04-.32.1-.44-.01-.12-.12.02-.27.07-.4ZM39.07,19.7c.44-1.09,1.12-1.98,2.19-2.51.61-.31,1.26-.25,1.79.28.84.84,1.62,1.71,2.22,2.74.03.05.06.1.1.2-.87-.39-1.7-.72-2.6-.84-.47-.06-.94-.07-1.42-.05-.74.02-1.43.21-2.14.35-.2.04-.18-.04-.13-.16ZM33.73,20.62c.21-.84.26-1.7.3-2.56,0-.2.07-.31.32-.24.85.25,1.63.64,2.37,1.11.39.24.78.49,1.1.84.07.07.16.13.15.28-1-.14-1.97-.14-2.94.08-.35.08-.66.27-.96.46-.06.04-.12.09-.19.13-.04.02-.09.03-.12.02-.04-.02-.03-.07-.02-.11ZM18.75,20.45c-.42-.1-.85-.17-1.28-.22-.14-.02-.28-.02-.43.01-.93.21-1.82.51-2.65.99-.09.06-.2.09-.34.16.04-.31.27-.43.43-.56.26-.22.51-.47.82-.65.62-.35,1.26-.67,1.96-.79.48-.08.99-.07,1.4.31.17.15.21.36.28.56.05.14-.04.22-.18.18ZM25.68,19.87c-.07.09-.3-.03-.45-.07-.75-.2-1.52-.32-2.3-.31-.99.02-1.95.2-2.86.6-.2.09-.41.16-.67.26.47-.75.93-1.43,1.51-2.03.34-.35.64-.74,1.03-1.03.5-.38,1.03-.35,1.57-.1.97.46,1.56,1.27,2.05,2.18.08.14.23.35.12.49ZM30.94,20.74c-.12.07-.25-.14-.38-.21-.54-.3-1.11-.48-1.74-.53-.67-.06-1.34,0-2.08.02.35-.45.75-.73,1.16-1.02.53-.37,1.12-.61,1.7-.89.26-.13.54-.2.82-.27.17-.05.27.02.27.22.02.75.12,1.49.21,2.23.02.15.21.33.04.44ZM16.03,55.67l3.37-3.37v6.75l-3.37-3.37ZM20.14,62.95c-.59,0-1.18,0-1.78,0-.25,0-.35-.12-.35-.34,0-1.08-.02-2.69-.02-3.82l1.41,1.41,2.75,2.75c-.65,0-1.54,0-2.02,0ZM20.85,32.72c-.32-.56-.59-1.15-.88-1.73-.46-.89-.93-1.77-1.4-2.65-.05-.08-.09-.16-.1-.26,0-.12.03-.19.17-.21.67-.1,1.58.33,1.93.91.11.19.23.27.45.13.32-.19.66-.04.77.31.05.14.09.28.09.42.02.53.29.92.78,1.09.53.19,1.07.32,1.63.27.56-.05.94-.35,1.17-.84.18-.38.16-.76-.08-1.12-.1-.15-.25-.23-.37-.35-.28-.3-.3-.55,0-.81.16-.13.21-.28.2-.47,0-.08,0-.16,0-.23.02-.24.12-.43.37-.49.32-.07.57.03.68.31.1.26.26.44.5.58.26.15.35.46.25.75-.12.33-.25.65-.25,1.01,0,.28.11.48.32.63.25.18.53.29.85.31.37.01.73.08,1.1,0,.72-.15,1.42-.34,1.91-.94.34-.41.54-1.36.02-1.94-.6-.68-.68-1.74.02-2.42.37-.36.39-.84.55-1.27.12-.32.24-.64.56-.83.23-.13.44-.08.63.09.31.28.47.67.55,1.06.08.4.24.71.5,1.01.69.78.51,1.75-.07,2.45-.31.37-.36.76-.23,1.2.2.68.66,1.11,1.33,1.34.5.18.99.33,1.47.29.41,0,.75-.04,1.09-.18.64-.27.71-.71.52-1.35-.04-.13-.1-.25-.15-.38-.14-.37-.02-.71.34-.89.2-.1.3-.23.36-.43.12-.38.4-.5.78-.39.3.09.3.34.32.55.02.27.01.5.27.69.23.18.19.46-.01.68-.07.08-.14.16-.22.22-.6.47-.46,1.24-.01,1.72.39.42.88.51,1.43.44.4-.05.79-.14,1.17-.27.4-.14.7-.55.71-.97,0-.21.05-.41.12-.6.1-.27.44-.41.7-.29.32.14.36.13.56-.15.44-.6,1.05-.85,1.77-.87.31-.01.38.1.24.37-.5.96-.99,1.92-1.5,2.87-.29.53-.53,1.09-.82,1.62-.1.19-.17.2-.34.05-.47-.42-1.05-.66-1.65-.84-.91-.27-1.82-.53-2.74-.73-1.01-.21-2.03-.37-3.05-.5-1.02-.13-2.04-.16-3.06-.22-.78-.05-1.56,0-2.33.03-1.12.05-2.23.17-3.33.33-1.01.15-2.02.35-3.01.6-.81.21-1.63.38-2.39.75-.32.15-.63.31-.88.57-.13.14-.21.12-.31-.05ZM21.86,35.05c-.2-.45-.38-.91-.54-1.38-.06-.17.09-.28.21-.38.2-.17.43-.31.68-.41,1.54-.58,3.13-.96,4.74-1.26,1.02-.19,2.05-.25,3.07-.38.5-.06,1.01-.11,1.46-.07.78,0,1.5-.02,2.23.02.65.04,1.31.08,1.96.16.51.07,1.04.1,1.55.17.78.12,1.54.29,2.31.46,1.06.24,2.09.55,3.11.93.25.09.46.26.67.42.2.14.22.35.12.55-.16.34-.29.7-.41,1.05-.13.36-.23.4-.55.21-.54-.34-1.15-.49-1.75-.65-.87-.24-1.75-.45-2.64-.6-.91-.16-1.82-.29-2.73-.41-.72-.09-1.44-.2-2.16-.23-.63-.03-1.28-.08-1.92.02-.38.06-.76.1-1.15.11-.46.01-.91.12-1.37.17-.8.08-1.6.24-2.4.39-.94.17-1.87.4-2.79.65-.46.13-.9.27-1.29.55-.21.15-.34.06-.41-.1ZM28.27,34.52c-.55.1-1.12.12-1.67.24-.46.1-.91.2-1.37.31-.45.1-.9.19-1.34.33-.22.07-.42.19-.64.25-.37.11-.44.45-.18.74.03.04.06.08.11.13-.13.08-.22,0-.32-.04-.16-.06-.29-.18-.43-.28-.28-.21-.25-.46.06-.62.55-.28,1.13-.48,1.73-.63.74-.18,1.5-.34,2.25-.49.86-.18,1.73-.31,2.6-.41.91-.1,1.82-.18,2.73-.21.95-.03,1.88.03,2.82.11,1.43.12,2.85.32,4.25.62,1.06.23,2.12.44,3.13.86.21.09.45.17.56.42.03.06.05.12.02.2-.1.21-.67.54-.96.52.07-.08.11-.13.15-.19.21-.29.1-.59-.23-.71-.91-.33-1.86-.55-2.81-.74-1.05-.21-2.11-.4-3.18-.5-1.13-.11-2.26-.24-3.39-.2-1.29.05-2.59.07-3.88.29ZM26.81,66.45l-3.62-3.62v-14.32l3.62-3.62v21.56ZM34.21,70.24l-1.81,1.81-1.81-1.81v-29.13l1.81-1.81,1.81,1.81v29.13ZM41.62,62.83l-3.62,3.62v-21.56l3.62,3.62v14.32ZM45.41,59.04v-6.75l3.37,3.37-3.37,3.37ZM2.15,47.58c-.14.41-.2.86-.19,1.31,0,.07,0,.14-.07.21-.19-.21-.21-.49-.25-.75-.08-.49-.14-.98-.21-1.47-.02-.11-.07-.21-.1-.32-.02-.07-.06-.14-.14-.11-.06.02-.1.1-.08.17.09.43.11.88.16,1.32,0,.07.03.14.02.2-.11.82.08,1.6.3,2.4-.31-.21-.45-.52-.59-.83-.31-.7-.5-1.44-.43-2.21.05-.61.07-1.23.21-1.83.02-.1.03-.25.16-.27.11-.02.15.12.22.19.19.21.4.4.59.61.35.39.62.78.41,1.37ZM6.22,49.62c.44-.42.77-.92,1.04-1.45.14-.28.21-.59.29-.9.02-.07.04-.17-.06-.2-.11-.04-.14.04-.18.13-.2.43-.48.8-.83,1.13-.06.05-.1.13-.19.08-.08-.05-.07-.13-.06-.21.04-.2.02-.4.02-.6,0-.47.23-.76.58-1.01.32-.22.66-.39.96-.63.18-.14.29-.06.3.18.03.82-.16,1.58-.51,2.32-.31.65-.69,1.25-1.2,1.76-.15.15-.34.27-.52.4l-.06-.04c.16-.32.13-.7.42-.97ZM3.25,52.06s-.04.01-.06.02c-.24-.34-.38-.72-.47-1.11-.27-1.13-.12-2.25.11-3.37.09-.44.39-.78.65-1.12.47-.6.91-1.22,1.21-1.95.32.33.45.73.61,1.11.33.79.39,1.61.33,2.46-.07,1.01-.28,1.97-.68,2.9-.16.36-.38.69-.61,1-.12.16-.24.14-.32-.05-.19-.46-.23-.95-.13-1.44.17-.91.37-1.82.56-2.73.06-.29.03-.58.03-.87,0-.07-.02-.14-.11-.15-.07,0-.07.06-.08.11-.12,1-.55,1.92-.81,2.88-.13.49-.27.99-.3,1.5-.01.27.05.54.08.81ZM4.61,63.09s-.11.01-.16-.02c-.27-.16-.5-.37-.72-.58-.69-.67-1.25-1.43-1.42-2.41-.09-.58-.09-1.16,0-1.73.02-.11.02-.22.04-.33.03-.19.19-.25.31-.11.28.33.55.67.81,1.02.12.16.09.37.11.55.02.28.1.56.06.92-.28-.37-.43-.75-.57-1.13-.05-.14-.05-.39-.24-.37-.19.02-.11.26-.1.39.06.92.36,1.76.93,2.5.3.39.59.8.92,1.17.03.04.07.09.03.13ZM6.7,62.85c-.05.17-.08.4-.26.44-.17.03-.23-.2-.31-.34-.2-.34-.27-.73-.32-1.12-.12-.91-.1-1.82-.11-2.73,0-.31-.09-.61-.18-.9-.03-.09-.07-.21-.18-.19-.12.02-.1.15-.08.24.1.69.03,1.39.05,2.08.01.38-.06.75-.06,1.13,0,.36.04.72.07,1.07,0,.06.04.13-.03.16-.07.03-.1-.05-.14-.09-.22-.24-.36-.52-.47-.82-.3-.81-.55-1.65-.51-2.52.04-.78.15-1.56.5-2.29.06-.13.1-.27.19-.39.16-.22.28-.23.4.02.11.23.27.41.41.61.29.43.67.8.89,1.28.29.63.5,1.27.48,1.64-.03,1.14-.09,1.94-.32,2.71ZM7.32,63.39c-.11-.05-.07-.16-.05-.25.11-.5.37-.92.61-1.37.53-.96.85-1.98.66-3.1-.03-.16-.03-.32-.09-.48-.02-.06-.06-.14-.14-.11-.08.02-.07.09-.07.15,0,.25,0,.5,0,.75.01.54-.13,1.05-.33,1.54-.03.07-.05.16-.15.15-.1-.01-.1-.1-.1-.18-.07-.58-.13-1.15-.34-1.7-.05-.12.02-.2.08-.28.33-.47.64-.95.91-1.45.03-.05.04-.13.11-.13.08,0,.09.09.12.15.34.76.57,1.55.55,2.4-.07,1.12-.28,2.19-.94,3.14-.17.25-.38.45-.58.68-.06.07-.15.14-.24.09ZM17.75,77.01c-1.01.39-2.01.31-2.99-.13-.71-.32-1.42-.64-2.12-.96-.18-.08-.05-.15.02-.19.22-.12.44-.23.67-.33.47-.19.96-.3,1.46-.36.22-.03.4.08.59.15.64.23,1.29.44,1.92.71.08.03.16.06.23.16-.65.08-1.25-.05-1.85-.2-.7-.17-1.42-.21-2.14-.19-.08,0-.19-.02-.19.11,0,.11.1.13.19.13.55,0,1.09.09,1.62.21.41.09.81.22,1.21.33.45.13.9.25,1.38.29.08,0,.16.05.26.08-.05.14-.17.15-.26.19ZM14.41,72.04c.14.09.27.18.41.26.48.29.9.65,1.29,1.05.64.64,1.27,1.3,1.97,1.88.06.04.13.09.14.19-.31-.04-.6-.1-.9-.19-.97-.32-1.91-.68-2.78-1.23-.76-.47-1.19-1.17-1.43-2.02-.15-.53-.04-1.05-.04-1.58,0-.28.1-.34.36-.25.71.23,1.38.54,2.03.91.94.54,1.73,1.27,2.47,2.05.44.47.83.98,1.16,1.53.05.08.08.16.14.29-.74-.13-1.3-.51-1.83-.93-.39-.31-.76-.64-1.1-1-.48-.49-1.05-.84-1.67-1.13-.04-.02-.08-.04-.12-.05-.06-.02-.13-.02-.17.04-.04.07,0,.13.06.17ZM19.93,73.97c-.07.02-.09-.06-.12-.11-.21-.38-.36-.79-.6-1.16-.31-.47-.64-.93-1.04-1.32-.5-.49-.98-1-1.44-1.54-.05-.06-.1-.15-.18-.11-.1.05-.07.15-.04.23.15.46.51.76.83,1.09.35.37.69.74.88,1.23-.55-.3-.95-.77-1.46-1.13-.08-.06-.16-.14-.25-.18-.47-.24-.61-.67-.72-1.15-.09-.39-.17-.78-.15-1.19,0-.07,0-.14.01-.2.03-.08.02-.19.12-.22.1-.04.15.06.21.12.7.65,1.41,1.3,2.11,1.95.66.63,1.2,1.36,1.54,2.21.17.43.31.86.34,1.33,0,.06.03.14-.05.16ZM29.19,76.04c-.73-.56-1.53-1-2.4-1.31-.13-.05-.25-.12-.37-.18-.34-.17-.4-.26-.33-.62.06-.33.2-.63.43-.89.08-.09.19-.11.32-.09.56.09,1.04.36,1.52.64.6.35,1.16.74,1.64,1.25.5.52.87,1.14,1.23,1.75.12.2.23.4.26.65,0,.02-.02.06-.03.1-.05.24-.09.55-.32.59-.2.04-.29-.27-.42-.43-.44-.58-.98-1.04-1.55-1.48ZM32.13,80.64c-.37.37-.72.77-1.11,1.1-.45.38-.86.81-1.32,1.18-.65.53-1.27,1.08-1.91,1.63-.77.67-1.64,1.19-2.49,1.75-.03.02-.07.06-.1.07-.06.03-.13.09-.19.04-.06-.06-.01-.13.02-.19.3-.59.6-1.19,1.08-1.67.32-.32.61-.67.91-1.01.04-.04.1-.09.07-.15-.04-.06-.1-.06-.18-.06-.81.06-1.61.05-2.4-.24.82-.13,1.63-.27,2.44-.42.26-.05.51-.15.75-.24,1.1-.41,2.14-.93,3.06-1.69.02-.02.04-.03.06-.05.32-.39.7-.54,1.2-.34.07.03.19,0,.22.09.03.08-.06.16-.11.22ZM32.02,79.64c-.3,0-.59-.23-.56-.47.04-.31.15-.59.34-.84.11-.15.21-.15.3.03.12.24.23.63.24.88,0,.26-.1.41-.31.41ZM32.85,79.57c-.07-.45-.23-.89-.29-1.35,0-.07-.04-.14.08-.13.29.03.78.59.77.85-.07.28.03.6-.31.73-.13.05-.23.03-.25-.11ZM35.42,81.72c.92.52,1.89.92,2.93,1.12.61.12,1.22.25,1.84.28.09,0,.16.03.28.12-.45.05-.83.18-1.24.21-.4.03-.8.07-1.2,0-.07-.01-.17-.03-.2.06-.03.08.02.15.08.2.37.36.68.77,1.04,1.14.42.43.65.98.93,1.5.03.06.05.12,0,.16-.06.05-.11,0-.16-.02-.43-.28-.86-.55-1.29-.83-1.15-.76-2.12-1.71-3.17-2.59-.52-.43-.99-.92-1.51-1.35-.28-.23-.51-.53-.76-.8-.14-.15.04-.5.28-.57.2-.06.37,0,.51.14.48.5,1.06.88,1.66,1.22ZM34.44,77.22c-.22.23-.4.49-.58.75-.1.15-.17.1-.25,0-.24-.34-.35-.71-.12-1.1.44-.74.86-1.5,1.49-2.1.42-.4.88-.76,1.39-1.03.48-.25.94-.57,1.49-.68.33-.06.42-.04.62.25.2.28.27.6.34.94-.03.16-.11.28-.28.36-.41.2-.86.32-1.27.53-1.07.53-2.02,1.21-2.83,2.08ZM44.97,74.04c-.1-.32,0-.61.09-.9.28-.98.79-1.84,1.49-2.57.54-.56,1.16-1.05,1.75-1.58.21-.19.4-.39.6-.59.18-.18.25-.16.33.09.09.31.05.63-.02.94-.07.31-.09.64-.23.94-.12.27-.28.48-.52.64-.63.41-1.13.99-1.83,1.41.22-.45.46-.8.77-1.12.32-.33.67-.64.9-1.04.03-.05.06-.1.07-.16.02-.09.06-.21-.03-.26-.1-.06-.13.08-.18.13-.33.35-.66.72-1.01,1.06-.8.79-1.5,1.66-1.95,2.7-.05.11-.07.25-.23.3ZM52.21,75.78c.06.04.16.07.16.16,0,.1-.11.11-.17.13-.79.35-1.56.75-2.36,1.05-.88.34-1.77.32-2.65,0-.09-.03-.23-.05-.21-.18.02-.13.14-.09.23-.1.87-.11,1.68-.43,2.53-.62.46-.11.92-.2,1.39-.2.15,0,.4-.01.39-.13-.01-.19-.25-.09-.39-.1-.93-.04-1.83.17-2.73.38-.33.08-.66.06-1.04-.01.28-.23.59-.3.87-.41.51-.21,1.04-.37,1.56-.56.29-.1.58-.01.86.03.55.08,1.07.3,1.55.57ZM51.11,73.48c-.41.49-.93.79-1.49,1.05-.91.42-1.84.78-2.82.98-.03,0-.06,0-.11,0,0-.1.05-.14.09-.17.5-.37.96-.8,1.39-1.25.35-.37.7-.74,1.09-1.09.32-.3.69-.52,1.06-.75.02-.01.05-.02.07-.04.09-.06.24-.11.17-.24-.06-.12-.18-.02-.27.02-.76.33-1.41.82-1.99,1.42-.63.65-1.32,1.18-2.17,1.51-.12.04-.26.16-.36.05-.08-.1.04-.22.1-.31.27-.42.56-.84.9-1.21.63-.7,1.32-1.34,2.07-1.9.6-.45,1.28-.75,1.97-1.03.2-.08.4-.19.61-.27.29-.1.38-.05.43.24.19,1.11,0,2.12-.73,3ZM57.59,63.45c-.1.04-.16-.02-.22-.08-.46-.44-.79-.96-1.05-1.53-.33-.72-.48-1.49-.5-2.26-.02-.86.18-1.69.57-2.47.08-.15.14-.17.22,0,.24.52.58.99.91,1.45.07.1.13.21.09.33-.2.53-.27,1.09-.34,1.65,0,.07.02.17-.09.19-.11.02-.14-.08-.17-.16-.22-.52-.38-1.06-.32-1.64,0-.19,0-.38,0-.57,0-.08-.02-.16-.12-.16-.08,0-.1.07-.12.14-.17.77-.14,1.54.09,2.3.19.64.5,1.22.86,1.77.18.27.2.58.28.87.02.07,0,.14-.07.18ZM57.66,49.2c-.41-.68-.73-1.4-.85-2.2-.04-.28-.03-.57-.02-.85,0-.17.12-.22.27-.13.46.28.92.56,1.33.91.2.17.24.41.26.65.02.24,0,.48,0,.72,0,.07.01.14-.07.17-.08.02-.13-.04-.18-.08-.32-.29-.59-.62-.79-1.01-.02-.03-.03-.06-.05-.09-.04-.07-.07-.15-.17-.12-.1.04-.05.12-.04.2.11.71.48,1.29.9,1.84.12.16.27.3.42.44.28.26.27.66.39,1-.66-.32-1.06-.87-1.41-1.46ZM59.83,62.64s-.06.17-.16.12c-.08-.04-.06-.14-.05-.21.1-.65.07-1.3.04-1.95-.03-.58-.03-1.16-.04-1.74,0-.19.04-.37.05-.56,0-.06,0-.15-.08-.17-.09-.02-.14.05-.16.13-.07.19-.15.37-.15.57,0,.5-.11,1.01-.05,1.45,0,.86-.02,1.65-.25,2.42-.08.26-.23.46-.39.65-.09.12-.15.02-.19-.06-.17-.32-.24-.67-.31-1.03-.14-.69-.2-1.39-.15-2.09.07-.93.41-1.77,1.03-2.49.27-.31.52-.63.72-.99.16-.3.27-.3.43,0,.28.5.47,1.04.55,1.61.07.45.11.9.11,1.35,0,.78-.26,1.51-.52,2.23-.1.27-.2.55-.42.76ZM62.3,58.02c.13-.15.28-.07.32.14.17,1.09.17,2.16-.37,3.17-.29.55-.73.99-1.19,1.4-.16.15-.34.28-.52.41-.04.03-.1.09-.16.03-.06-.06,0-.11.04-.15.31-.41.62-.81.92-1.23.54-.74.86-1.57.85-2.5,0-.1.07-.26-.09-.28-.15-.01-.16.15-.2.26-.13.42-.33.8-.6,1.15,0-.27.01-.53.02-.79,0-.73.55-1.14.97-1.62ZM61.73,52.19c-.09-.2,0-.35,0-.5.04-.66-.13-1.29-.31-1.91-.24-.83-.6-1.62-.75-2.47-.02-.09-.02-.18-.03-.28-.01-.06-.03-.15-.11-.14-.07.01-.07.09-.07.15,0,.38-.03.75.06,1.12.21.82.38,1.65.52,2.48.07.43.07.87-.12,1.28-.15.31-.21.31-.43.02-.48-.65-.78-1.38-.98-2.15-.24-.93-.32-1.88-.25-2.82.06-.81.36-1.56.8-2.25.07-.1.12-.16.19,0,.27.65.69,1.21,1.14,1.75.55.67.86,1.42.87,2.3,0,.38.1.77.09,1.15-.02.78-.18,1.54-.62,2.27ZM63.75,50.19c-.09.16-.2.29-.37.39.09-.39.15-.77.21-1.16.03-.17.03-.34.03-.51-.01-.69.04-1.38.15-2.07.02-.08.06-.21-.07-.24-.12-.03-.14.1-.16.19-.13.54-.16,1.1-.25,1.64-.05.24-.09.49-.24.73-.16-.2-.09-.43-.12-.64-.06-.39-.15-.77-.24-1.15-.05-.2-.02-.37.08-.53.29-.49.71-.87,1.1-1.27.1-.11.17-.08.23.04.1.21.1.43.14.65.23,1.36.2,2.68-.49,3.93Z"/>
      <path class="st0" d="M19.98,29.02c-.2,0-.3.17-.21.36.12.26.22.53.38.75.18.26.37.53.71.64.32.1.7-.09.7-.39,0-.02,0-.05,0-.09-.05-.58-1.02-1.27-1.58-1.28Z"/>
      <path class="st0" d="M43.73,30.83c.32-.04.56-.19.74-.44.2-.29.35-.61.51-.92.06-.11.06-.21,0-.31-.07-.1-.18-.11-.28-.08-.6.15-1.1.46-1.4,1.03-.21.4,0,.72.44.73Z"/>
      <path class="st0" d="M32.04,25.3c.18.29.51.27.67-.02.27-.48.19-.93-.05-1.39-.06-.12-.12-.23-.28-.23-.17,0-.28.1-.33.24-.09.25-.21.49-.17.78-.05.22.04.42.16.61Z"/>
      <path class="st0" d="M32.87,27.06c.07.1.17.15.31.1.29-.09.69-.59.68-.89,0-.36-.19-.6-.48-.6-.08-.01-.16.02-.23.06-.35.21-.52.99-.28,1.32Z"/>
      <path class="st0" d="M31.92,26.94c.04-.1.05-.2.05-.3,0-.25-.08-.48-.19-.68-.09-.18-.27-.33-.51-.27-.23.06-.35.24-.36.47-.03.43.2.73.55.94.24.15.37.09.47-.17Z"/>
      <path class="st0" d="M25.59,28.16c-.01.15.01.32.09.49.09.19.24.3.44.28.21-.02.28-.21.31-.39.03-.19.02-.39-.06-.58-.11-.25-.36-.43-.54-.38-.27.08-.25.31-.25.52v.06Z"/>
      <path class="st0" d="M38.65,28.94c.2.01.34-.11.43-.28.08-.15.12-.3.11-.47-.01-.09,0-.19-.03-.28-.03-.14-.1-.28-.25-.32-.16-.04-.28.06-.38.18-.21.24-.25.53-.19.82.04.16.09.35.31.36Z"/>
      <path class="st0" d="M31.3,32.73c.34.23.72.28,1.26.3.23.02.57-.09.88-.29.32-.21.35-.55.1-.83-.48-.52-1.73-.57-2.29-.07-.28.25-.26.67.05.88Z"/>
      <path class="st0" d="M37.96,33.4c.47.33,1,.49,1.57.44.54-.05.79-.65.46-1.07-.35-.45-.85-.57-1.38-.6-.08,0-.16-.02-.23,0-.26.06-.53.11-.63.41-.09.27,0,.67.21.82Z"/>
      <path class="st0" d="M25.44,33.79c.52.02.95-.12,1.33-.38.23-.15.31-.41.3-.68-.02-.25-.17-.41-.41-.51-.53-.21-1.43-.02-1.82.41-.23.25-.28.51-.14.8.16.33.46.38.73.35Z"/>
      <path class="st0" d="M35.69,33.28c.47,0,.85-.36.85-.83,0-.5-.37-.88-.86-.89-.36,0-.85.45-.87.81-.02.43.44.91.87.91ZM35.78,32c.2,0,.32.13.32.38,0,.25-.11.39-.3.4-.15,0-.43-.27-.43-.42,0-.15.23-.36.42-.36Z"/>
      <path class="st0" d="M41.92,34.56c.44,0,.8-.39.81-.85,0-.52-.32-.83-.86-.83-.48,0-.78.32-.78.84-.05.59.44.83.82.84ZM41.89,33.39c.2-.01.38.16.38.36,0,.18-.19.37-.39.36-.2-.01-.3-.14-.32-.35,0-.19.13-.35.33-.36Z"/>
      <path class="st0" d="M29.07,33.28c.39,0,.82-.39.82-.74.01-.63-.32-1-.88-.99-.45,0-.78.36-.78.84,0,.52.36.9.85.9ZM29.03,31.99c.22,0,.44.23.43.43,0,.2-.19.37-.38.36-.24,0-.44-.22-.44-.47,0-.17.2-.33.4-.32Z"/>
      <path class="st0" d="M22.9,34.51c.42.07.83-.36.83-.81,0-.48-.38-.87-.85-.87-.46,0-.83.36-.83.83,0,.5.45.92.86.85ZM22.9,33.28c.21,0,.37.17.38.4,0,.21-.16.38-.39.38-.19,0-.44-.18-.45-.35-.01-.2.22-.42.46-.43Z"/>
      <path class="st0" d="M12.38,41.19c.1.66.15,1.32.11,1.99-.02.33-.03.33.29.33.8,0,1.6,0,2.39,0,.03,0,.06,0,.1,0h0s.02,0,.03,0,.02,0,.03,0h0s.06,0,.1,0c.8,0,1.6,0,2.39,0,.33,0,.31,0,.29-.33-.04-.67.02-1.33.11-1.99.11-.76.44-1.43.73-2.12.04-.1.12-.2.03-.31-.1-.1-.21-.05-.31,0-.63.25-1.21.59-1.78.95-.29.18-.36.17-.53-.12-.23-.39-.48-.77-.76-1.12-.1-.13-.19-.18-.29-.17-.1,0-.19.04-.29.17-.29.35-.53.74-.76,1.12-.17.28-.24.3-.53.12-.57-.36-1.16-.69-1.78-.95-.1-.04-.22-.1-.31,0-.1.1-.02.21.03.31.3.69.62,1.36.73,2.12Z"/>
      <path class="st0" d="M50.68,39.59c-.23-.39-.48-.77-.76-1.12-.1-.13-.19-.18-.29-.17-.1,0-.19.04-.29.17-.29.35-.53.74-.76,1.12-.17.28-.24.3-.53.12-.57-.36-1.16-.69-1.78-.95-.1-.04-.22-.1-.31,0-.1.1-.02.21.03.31.3.69.62,1.36.73,2.12.1.66.15,1.32.11,1.99-.02.33-.03.33.29.33.8,0,1.6,0,2.39,0,.03,0,.06,0,.1,0h0s.02,0,.03,0,.02,0,.03,0h0s.06,0,.1,0c.8,0,1.6,0,2.39,0,.33,0,.31,0,.29-.33-.04-.67.02-1.33.11-1.99.11-.76.44-1.43.73-2.12.04-.1.12-.2.03-.31-.1-.1-.21-.05-.31,0-.63.25-1.21.59-1.78.95-.29.18-.36.17-.53-.12Z"/>
    </g>
    <g>
      <g>
        <path class="st0" d="M87.19,29.7h4.56l6.82,19.28h-4.37l-1.27-3.96h-7.1l-1.31,3.96h-4.21l6.88-19.28ZM86.93,41.7h4.94l-2.44-7.59-2.5,7.59Z"/>
        <path class="st0" d="M102.85,41.67v.44c.03,1.49.19,2.54.46,3.15.27.61.86.91,1.76.91s1.48-.33,1.77-.99c.17-.39.26-1.05.26-1.99v-13.48h4.03v13.42c0,1.64-.28,2.94-.83,3.9-.94,1.62-2.63,2.43-5.08,2.43s-4.09-.66-4.92-1.97c-.84-1.31-1.25-3.1-1.25-5.37v-.44h3.81Z"/>
        <path class="st0" d="M114.86,29.7h4.09v11.84c0,1.32.16,2.29.47,2.9.49,1.08,1.55,1.62,3.18,1.62s2.68-.54,3.17-1.62c.31-.61.47-1.58.47-2.9v-11.84h4.09v11.85c0,2.05-.32,3.65-.95,4.79-1.18,2.09-3.44,3.14-6.78,3.14s-5.6-1.05-6.79-3.14c-.64-1.14-.95-2.74-.95-4.79v-11.85Z"/>
        <path class="st0" d="M133.35,29.7h4.22l7.65,13.44v-13.44h3.75v19.28h-4.03l-7.85-13.68v13.68h-3.75v-19.28Z"/>
        <path class="st0" d="M166.15,29.7v3.41h-5.77v15.87h-4.05v-15.87h-5.79v-3.41h15.62Z"/>
        <path class="st0" d="M171.27,29.7h4.56l6.82,19.28h-4.37l-1.27-3.96h-7.1l-1.31,3.96h-4.21l6.88-19.28ZM171,41.7h4.94l-2.44-7.59-2.5,7.59Z"/>
        <path class="st0" d="M197.63,29.7h5.8v19.28h-3.75v-13.04c0-.37,0-.9.01-1.58,0-.68.01-1.2.01-1.56l-3.65,16.18h-3.91l-3.63-16.18c0,.37,0,.89.01,1.56,0,.68.01,1.2.01,1.58v13.04h-3.75v-19.28h5.86l3.51,15.16,3.48-15.16Z"/>
        <path class="st0" d="M221.14,33.12h-10.2v4.09h9.36v3.35h-9.36v4.96h10.67v3.47h-14.61v-19.28h14.14v3.41Z"/>
        <path class="st0" d="M224.52,29.7h4.22l7.65,13.44v-13.44h3.75v19.28h-4.03l-7.85-13.68v13.68h-3.75v-19.28Z"/>
        <path class="st0" d="M258.29,29.7v3.41h-5.77v15.87h-4.05v-15.87h-5.79v-3.41h15.62Z"/>
      </g>
      <g>
        <path class="st0" d="M92.5,59.28c1.37.45,2.48,1.28,3.34,2.48.68.97,1.15,2.03,1.4,3.16.25,1.13.37,2.21.37,3.24,0,2.6-.52,4.81-1.57,6.61-1.42,2.43-3.61,3.65-6.57,3.65h-8.44v-19.57h8.44c1.21.02,2.22.16,3.03.43ZM85,62.25v12.77h3.78c1.93,0,3.28-.95,4.04-2.85.42-1.04.62-2.29.62-3.73,0-1.99-.31-3.52-.94-4.59-.62-1.07-1.87-1.6-3.73-1.6h-3.78Z"/>
        <path class="st0" d="M114.07,62.32h-10.36v4.16h9.51v3.4h-9.51v5.03h10.83v3.52h-14.83v-19.57h14.35v3.47Z"/>
        <path class="st0" d="M136.88,58.85h4.25l-6.67,19.57h-3.86l-6.62-19.57h4.37l4.25,14.86,4.29-14.86Z"/>
        <path class="st0" d="M145.26,58.85h4.63l6.92,19.57h-4.43l-1.29-4.02h-7.21l-1.33,4.02h-4.28l6.99-19.57ZM144.99,71.03h5.01l-2.47-7.7-2.54,7.7Z"/>
        <path class="st0" d="M158.84,58.85h4.09v16.05h9.77v3.52h-13.86v-19.57Z"/>
        <path class="st0" d="M189.92,62.32h-10.36v4.16h9.51v3.4h-9.51v5.03h10.83v3.52h-14.83v-19.57h14.35v3.47ZM185.09,57.29h-2.74l-4.02-3.97h4.21l2.55,3.97Z"/>
        <path class="st0" d="M193.52,58.85h4.29l7.77,13.65v-13.65h3.81v19.57h-4.09l-7.97-13.89v13.89h-3.81v-19.57Z"/>
        <path class="st0" d="M215.09,60.9c1.58-1.61,3.58-2.42,6.02-2.42,3.26,0,5.64,1.08,7.15,3.24.83,1.21,1.28,2.43,1.34,3.65h-4.09c-.26-.94-.59-1.65-1-2.12-.73-.85-1.81-1.27-3.24-1.27s-2.61.6-3.45,1.8c-.84,1.2-1.26,2.9-1.26,5.09s.44,3.84,1.33,4.93c.89,1.09,2.02,1.64,3.38,1.64s2.47-.47,3.21-1.41c.41-.5.74-1.26,1.01-2.27h4.06c-.35,2.13-1.25,3.87-2.69,5.21-1.44,1.34-3.29,2.01-5.54,2.01-2.79,0-4.97-.9-6.57-2.71-1.59-1.81-2.39-4.3-2.39-7.46,0-3.42.91-6.05,2.72-7.9Z"/>
        <path class="st0" d="M236.59,78.42h-4.06v-19.57h4.06v19.57Z"/>
        <path class="st0" d="M246.01,58.85h4.63l6.92,19.57h-4.43l-1.29-4.02h-7.21l-1.33,4.02h-4.28l6.99-19.57ZM245.75,71.03h5.01l-2.47-7.7-2.54,7.7Z"/>
      </g>
    </g>
  </g>
</svg>